<svg width="15" height="15" viewBox="0 0 15 15" fill="currentColor" xmlns="http://www.w3.org/2000/svg">
<path fill-rule="evenodd" clip-rule="evenodd" d="M7.49991 0.876953C3.84222 0.876953 0.877075 3.8421 0.877075 7.49978C0.877075 11.1574 3.84222 14.1226 7.49991 14.1226C11.1576 14.1226 14.1227 11.1574 14.1227 7.49978C14.1227 3.8421 11.1576 0.876953 7.49991 0.876953ZM1.82707 7.49978C1.82707 4.36677 4.36689 1.82695 7.49991 1.82695C10.6329 1.82695 13.1727 4.36677 13.1727 7.49978C13.1727 10.6328 10.6329 13.1726 7.49991 13.1726C4.36689 13.1726 1.82707 10.6328 1.82707 7.49978ZM8.24992 4.50005C8.24992 4.91426 7.91413 5.25005 7.49992 5.25005C7.08571 5.25005 6.74992 4.91426 6.74992 4.50005C6.74992 4.08583 7.08571 3.75005 7.49992 3.75005C7.91413 3.75005 8.24992 4.08583 8.24992 4.50005ZM6.00003 6.00005H6.50003H7.50003C7.77618 6.00005 8.00003 6.2239 8.00003 6.50005V10H8.50003H9.00003V11H8.50003H7.50003H6.50003H6.00003V10H6.50003H7.00003V7.00005H6.50003H6.00003V6.00005Z" fill="black"/>
</svg>
